<svg xmlns="http://www.w3.org/2000/svg" xmlns:svg="http://www.w3.org/2000/svg" id="svg275" width="1024" height="1024" version="1.1" viewBox="0 0 270.933 270.933"><g id="layer1"><rect style="fill:#1cff55;fill-opacity:1;stroke:#004d13;stroke-width:20.1416;stroke-linecap:butt;stroke-linejoin:round;stroke-dasharray:none;stroke-opacity:1;paint-order:normal" id="rect3586" width="60.671" height="92.977" x="-127.769" y="138.383" ry="26.275" transform="rotate(-90)"/><rect style="fill:#1cff55;fill-opacity:1;stroke:#004d13;stroke-width:20.1416;stroke-linecap:butt;stroke-linejoin:round;stroke-dasharray:none;stroke-opacity:1;paint-order:normal" id="rect3528" width="60.671" height="92.977" x="-127.769" y="39.692" ry="26.275" transform="rotate(-90)"/><path style="fill:#007012;fill-opacity:1;stroke:#004d13;stroke-width:20.1416;stroke-linecap:round;stroke-linejoin:round;stroke-dasharray:none;stroke-opacity:1;paint-order:normal" id="path3532" d="m 190.9347,97.125674 h 29.72642"/><g id="text525" aria-label="gridfinity" style="font-size:25.4px;font-family:'Karnivore Lite';-inkscape-font-specification:'Karnivore Lite';letter-spacing:5.91079px;fill:#222;stroke-width:.2;stroke-linecap:round;stroke-linejoin:round"><path id="path294" d="m 60.906215,154.59439 v 10.2108 h -11.1252 l -1.524,-1.5494 v -14.732 l 1.524,-1.5494 h 11.1252 v 2.5654 h -10.0838 v 12.7 h 7.5184 v -5.0546 h -3.0988 v -2.5908 z"/><path id="path296" d="m 71.9986,154.59439 h 7.5946 v -5.0546 h -7.5946 z m 10.16,3.4544 v 6.7564 h -2.5654 v -7.62 h -7.5946 v 7.62 h -2.5654 v -17.8308 h 11.176 l 1.5494,1.5494 v 5.207 l -2.159,2.159 z"/><path id="path298" d="m 93.174786,146.97439 v 17.8308 h -2.5654 v -17.8308 z"/><path id="path300" d="m 104.19098,162.23979 h 7.6708 v -12.7 h -7.6708 z m 10.2362,-13.716 v 14.732 l -1.5494,1.5494 h -11.2522 v -17.8308 h 11.2522 z"/><path id="path302" d="m 135.50177,157.18519 h -10.0584 v 7.62 h -2.5654 v -16.2814 l 1.524,-1.5494 11.0744,-0.0254 v 2.5908 h -10.033 v 5.0546 h 10.0584 z"/><path id="path304" d="m 146.61956,146.97439 v 17.8308 h -2.5654 v -17.8308 z"/><path id="path306" d="m 167.79575,148.52379 v 16.2814 h -2.5654 v -15.2654 h -7.5946 v 15.2654 h -2.5654 v -17.8308 h 11.176 z"/><path id="path308" d="m 178.83732,146.97439 v 17.8308 h -2.5654 v -17.8308 z"/><path id="path310" d="m 199.96273,146.94899 v 2.5908 h -4.953 v 15.2654 h -2.5654 v -15.2654 h -5.1562 v -2.5654 z"/><path id="path312" d="m 221.2913,146.97439 v 8.6614 l -1.5494,1.5494 h -3.6322 v 7.62 h -2.5654 v -7.62 h -3.5306 l -1.524,-1.5494 v -8.6614 h 2.5654 v 7.62 h 7.6708 v -7.62 z"/></g><g id="text951" aria-label="catalog" style="font-size:25.4px;font-family:'Karnivore Lite';-inkscape-font-specification:'Karnivore Lite';letter-spacing:5.91079px;fill:#222;stroke-width:.2;stroke-linecap:round;stroke-linejoin:round"><path id="path417" d="m 80.586989,190.29173 v 2.5654 h -11.176 l -1.524,-1.5494 v -14.732 l 1.524,-1.5494 h 11.176 v 2.5654 h -10.1346 v 12.7 z"/><path id="path419" d="m 91.653961,182.64633 h 7.5692 v -5.0546 h -7.5692 z m 10.134599,-6.0706 v 16.2814 h -2.565399 v -7.62 h -7.5692 v 7.62 h -2.565399 v -16.2814 l 1.524,-1.5494 h 9.601198 z"/><path id="path421" d="m 122.96473,175.00093 v 2.5908 h -4.953 v 15.2654 h -2.5654 v -15.2654 h -5.1562 v -2.5654 z"/><path id="path423" d="m 134.05711,182.64633 h 7.5692 v -5.0546 h -7.5692 z m 10.1346,-6.0706 v 16.2814 h -2.5654 v -7.62 h -7.5692 v 7.62 h -2.5654 v -16.2814 l 1.524,-1.5494 h 9.6012 z"/><path id="path425" d="m 160.21168,190.29173 v 2.5654 h -5.9944 l -1.524,-1.5494 v -16.2814 h 2.5654 v 15.2654 z"/><path id="path427" d="m 171.32946,190.29173 h 7.62 v -12.7 h -7.62 z m 10.1854,-13.716 v 14.732 l -1.5494,1.5494 h -9.6774 l -1.524,-1.5494 v -14.732 l 1.524,-1.5494 h 9.6774 z"/><path id="path429" d="m 202.61483,182.64633 v 10.2108 h -11.1252 l -1.524,-1.5494 v -14.732 l 1.524,-1.5494 h 11.1252 v 2.5654 h -10.0838 v 12.7 h 7.5184 v -5.0546 h -3.0988 v -2.5908 z"/></g></g></svg>