<svg xmlns="http://www.w3.org/2000/svg" xmlns:svg="http://www.w3.org/2000/svg" id="svg275" width="1024" height="1024" version="1.1" viewBox="0 0 270.933 270.933"><g id="layer1"><g id="g3667" transform="matrix(0.75138098,-0.70483371,0.70483371,0.75138098,-50.547589,138.29051)"><circle style="fill:#1cff55;fill-opacity:1;stroke:#004d13;stroke-width:16.9333;stroke-linecap:round;stroke-linejoin:round;stroke-dasharray:none;stroke-opacity:1" id="path3315" cx="133.023" cy="86.657" r="55.416"/><path style="fill:#004d13;fill-opacity:1;stroke:#004d13;stroke-width:0;stroke-linecap:round;stroke-linejoin:round;stroke-dasharray:none;stroke-opacity:1" id="path3663" d="m 124.67618,148.20944 -4.00566,84.11887 c 0,0 0.25035,12.01698 12.76804,12.01698 12.51769,0 13.26875,-10.26451 13.26875,-10.26451 l -5.50778,-86.1217 z"/></g><g id="text455" aria-label="faq" style="font-size:36.9144px;font-family:'Karnivore Lite';-inkscape-font-specification:'Karnivore Lite';letter-spacing:7.6905px;fill:#004d13;stroke-width:24.6096;stroke-linecap:round;stroke-linejoin:round"><path id="path3678" d="M 89.968345,111.02954 H 75.350243 v 11.07432 H 71.621889 V 98.44173 l 2.214864,-2.251779 16.094677,-0.03691 v 3.765269 H 75.350243 v 7.345964 h 14.618102 z"/><path id="path3680" d="m 105.22629,107.26427 h 11.00049 v -7.345964 h -11.00049 z m 14.72884,-8.82254 v 23.66213 h -3.72835 v -11.07432 h -11.00049 v 11.07432 h -3.72835 V 98.44173 l 2.21486,-2.251779 h 13.95364 z"/><path id="path3682" d="m 135.13923,118.3755 h 11.07432 V 99.918306 H 135.13923 Z M 149.9419,98.44173 v 21.41035 l -2.25178,2.25178 h -4.98344 v 5.42642 h -3.72835 v -5.42642 h -5.35259 l -2.21487,-2.25178 V 98.44173 l 2.21487,-2.251779 h 14.06438 z"/></g></g></svg>