<svg xmlns="http://www.w3.org/2000/svg" xmlns:svg="http://www.w3.org/2000/svg" id="svg275" width="1024" height="1024" version="1.1" viewBox="0 0 270.933 270.933"><g id="layer1"><rect style="fill:#1cff55;fill-opacity:1;stroke:#004d13;stroke-width:20.142;stroke-linecap:round;stroke-linejoin:round;stroke-dasharray:none;stroke-opacity:1;paint-order:normal" id="rect3528" width="117.126" height="82.808" x="-169.625" y="92.824" ry="0" transform="rotate(-90)"/><g id="text455" aria-label="technical" style="font-size:25.4px;font-family:'Karnivore Lite';-inkscape-font-specification:'Karnivore Lite';letter-spacing:5.29167px;fill:#222;stroke-width:.2;stroke-linecap:round;stroke-linejoin:round"><path id="path2320" d="m 67.243298,195.97603 v 2.5908 h -4.953 v 15.2654 h -2.5654 v -15.2654 h -5.1562 v -2.5654 z"/><path id="path2322" d="m 87.800349,211.26683 v 2.5654 h -11.1252 l -1.524,-1.5494 v -14.732 l 1.524,-1.5494 h 11.1252 v 2.5654 h -10.0838 v 5.0546 h 10.1092 v 2.5908 h -10.1092 v 5.0546 z"/><path id="path2324" d="m 108.40822,211.26683 v 2.5654 H 97.232217 l -1.524,-1.5494 v -14.732 l 1.524,-1.5494 h 11.176003 v 2.5654 H 98.273617 v 12.7 z"/><path id="path2326" d="m 128.91447,196.00143 v 17.8308 h -2.5654 v -7.62 h -7.493 v 7.62 h -2.5654 v -17.8308 h 2.5654 v 7.62 h 7.493 v -7.62 z"/><path id="path2328" d="m 149.64934,197.55083 v 16.2814 h -2.5654 v -15.2654 h -7.5946 v 15.2654 h -2.5654 v -17.8308 h 11.176 z"/><path id="path2330" d="m 160.07179,196.00143 v 17.8308 h -2.5654 v -17.8308 z"/><path id="path2332" d="m 180.60347,211.26683 v 2.5654 h -11.176 l -1.524,-1.5494 v -14.732 l 1.524,-1.5494 h 11.176 v 2.5654 h -10.1346 v 12.7 z"/><path id="path2334" d="m 191.05132,203.62143 h 7.5692 v -5.0546 h -7.5692 z m 10.1346,-6.0706 v 16.2814 h -2.5654 v -7.62 h -7.5692 v 7.62 h -2.5654 v -16.2814 l 1.524,-1.5494 h 9.6012 z"/><path id="path2336" d="m 216.58676,211.26683 v 2.5654 h -5.9944 l -1.524,-1.5494 v -16.2814 h 2.5654 v 15.2654 z"/></g><g id="text1144" aria-label="specifications" transform="scale(1.0594209,0.94391186)" style="font-size:15.419px;font-family:'Karnivore Lite';-inkscape-font-specification:'Karnivore Lite';letter-spacing:3.21228px;fill:#222;stroke-width:.121409;stroke-linecap:round;stroke-linejoin:round"><path id="path2339" d="m 60.510636,241.06416 v 4.31732 l -0.940559,0.94056 h -6.738103 v -1.55732 h 6.121343 v -3.06838 h -5.196203 l -0.92514,-0.94056 v -4.31732 l 0.92514,-0.94056 h 6.753522 v 1.55732 h -6.121343 v 3.06838 h 5.180784 z"/><path id="path2341" d="m 66.868389,240.1236 h 4.594862 v -3.06838 h -4.594862 z m 6.152181,-3.68514 v 4.31732 l -0.940559,0.94056 h -5.211622 v 4.6257 H 65.31107 V 235.4979 h 6.768941 z"/><path id="path2343" d="m 85.468828,244.76472 v 1.55732 h -6.753521 l -0.92514,-0.94056 v -8.94302 l 0.92514,-0.94056 h 6.753521 v 1.55732 h -6.121343 v 3.06838 h 6.136762 v 1.57274 h -6.136762 v 3.06838 z"/><path id="path2345" d="m 97.978764,244.76472 v 1.55732 h -6.78436 l -0.92514,-0.94056 v -8.94302 l 0.92514,-0.94056 h 6.78436 v 1.55732 h -6.152181 v 7.7095 z"/><path id="path2347" d="m 104.32109,235.4979 v 10.82414 h -1.55732 V 235.4979 Z"/><path id="path2349" d="m 116.73851,241.69634 h -6.10592 v 4.6257 h -1.55732 v -9.88358 l 0.92514,-0.94056 6.72269,-0.0154 v 1.57274 h -6.09051 v 3.06838 h 6.10592 z"/><path id="path2351" d="m 123.11169,235.4979 v 10.82414 h -1.55732 V 235.4979 Z"/><path id="path2353" d="m 135.57537,244.76472 v 1.55732 h -6.78436 l -0.92514,-0.94056 v -8.94302 l 0.92514,-0.94056 h 6.78436 v 1.55732 h -6.15218 v 7.7095 z"/><path id="path2355" d="m 141.9177,240.1236 h 4.59486 v -3.06838 h -4.59486 z m 6.15218,-3.68514 v 9.88358 h -1.55732 v -4.6257 h -4.59486 v 4.6257 h -1.55732 v -9.88358 l 0.92514,-0.94056 h 5.82838 z"/><path id="path2357" d="m 160.54897,235.48248 v 1.57274 h -3.00671 v 9.26682 h -1.55732 v -9.26682 h -3.13006 v -1.55732 z"/><path id="path2359" d="m 166.90671,235.4979 v 10.82414 h -1.55732 V 235.4979 Z"/><path id="path2361" d="m 173.21821,244.76472 h 4.6257 v -7.7095 h -4.6257 z m 6.18302,-8.32626 v 8.94302 l -0.94056,0.94056 h -5.87464 l -0.92514,-0.94056 v -8.94302 l 0.92514,-0.94056 h 5.87464 z"/><path id="path2363" d="m 191.88032,236.43846 v 9.88358 H 190.323 v -9.26682 h -4.61028 v 9.26682 H 184.1554 V 235.4979 h 6.78436 z"/><path id="path2365" d="m 204.32857,241.06416 v 4.31732 l -0.94056,0.94056 h -6.7381 v -1.55732 h 6.12134 v -3.06838 h -5.1962 l -0.92514,-0.94056 v -4.31732 l 0.92514,-0.94056 h 6.75352 v 1.55732 h -6.12135 v 3.06838 h 5.18079 z"/></g><g id="g2312" transform="matrix(0.95652174,0,0,1,4.5816207,10.583332)"><g id="g2280"><g id="g2266" transform="translate(0,5.2916667)"><rect style="fill:#004d13;fill-opacity:1;stroke:none;stroke-width:32.2531;stroke-linecap:round;stroke-linejoin:round;stroke-dasharray:none" id="rect2260" width="56.284" height="2.479" x="106.121" y="79.963" ry="1.24"/><rect style="fill:#004d13;fill-opacity:1;stroke:none;stroke-width:24.9189;stroke-linecap:round;stroke-linejoin:round;stroke-dasharray:none" id="rect2262" width="33.597" height="2.479" x="106.121" y="85.07" ry="1.24"/></g><g id="g2272" transform="translate(-0.24794653,21.284218)"><rect style="fill:#004d13;fill-opacity:1;stroke:none;stroke-width:32.2531;stroke-linecap:round;stroke-linejoin:round;stroke-dasharray:none" id="rect2268" width="56.284" height="2.479" x="106.121" y="79.963" ry="1.24"/><rect style="fill:#004d13;fill-opacity:1;stroke:none;stroke-width:24.9189;stroke-linecap:round;stroke-linejoin:round;stroke-dasharray:none" id="rect2270" width="33.597" height="2.479" x="106.121" y="85.07" ry="1.24"/></g></g><g id="g2286" transform="translate(-0.7438396,38.392529)"><rect style="fill:#004d13;fill-opacity:1;stroke:none;stroke-width:32.2531;stroke-linecap:round;stroke-linejoin:round;stroke-dasharray:none" id="rect2282" width="56.284" height="2.479" x="106.121" y="79.963" ry="1.24"/><rect style="fill:#004d13;fill-opacity:1;stroke:none;stroke-width:24.9189;stroke-linecap:round;stroke-linejoin:round;stroke-dasharray:none" id="rect2284" width="33.597" height="2.479" x="106.121" y="85.07" ry="1.24"/></g></g><g id="g2318" transform="translate(0,1.0583333)"><rect style="fill:#004d13;fill-opacity:1;stroke:none;stroke-width:45.039;stroke-linecap:round;stroke-linejoin:round;stroke-dasharray:none" id="rect1530" width="56.284" height="4.835" x="105.997" y="70.789" ry="2.417"/><rect style="fill:#004d13;fill-opacity:1;stroke:none;stroke-width:37.6942;stroke-linecap:round;stroke-linejoin:round;stroke-dasharray:none" id="rect2314" width="39.423" height="4.835" x="105.997" y="77.668" ry="2.417"/></g></g></svg>